<svg xmlns="http://www.w3.org/2000/svg" width="15.874" height="15.873" viewBox="0 0 15.874 15.873"><defs><style>.a{fill:#303030;}</style></defs><g transform="translate(0 -0.015)"><g transform="translate(6.879 7.687)"><path class="a" d="M209.09,233.869a.529.529,0,1,1,.529-.529h.529a1.058,1.058,0,0,0-.794-1.021v-.3h-.529v.3a1.056,1.056,0,0,0,.265,2.079.529.529,0,1,1-.529.529h-.529a1.058,1.058,0,0,0,.794,1.021v.3h.529v-.3a1.056,1.056,0,0,0-.265-2.079Z" transform="translate(-208.032 -232.017)"/></g><g transform="translate(4.499 6.364)"><path class="a" d="M139.471,192.017a3.439,3.439,0,1,0,3.439,3.439A3.439,3.439,0,0,0,139.471,192.017Zm0,6.349a2.91,2.91,0,1,1,2.91-2.91A2.91,2.91,0,0,1,139.471,198.366Z" transform="translate(-136.032 -192.017)"/></g><g transform="translate(0 0.015)"><g transform="translate(0)"><path class="a" d="M15.61,5.835a.265.265,0,0,0,.265-.265V4.512s0-.006,0-.01a.261.261,0,0,0-.017-.084.016.016,0,0,0,0-.01.265.265,0,0,0-.053-.078l-.025-.02a.266.266,0,0,0-.038-.03L8.065.048a.263.263,0,0,0-.256,0L.137,4.281a.266.266,0,0,0-.038.03l-.025.02a.265.265,0,0,0-.053.078.016.016,0,0,1,0,.01A.261.261,0,0,0,0,4.5s0,.006,0,.01V5.571a.265.265,0,0,0,.265.265h.795v7.937H.266A.265.265,0,0,0,0,14.036v1.587a.265.265,0,0,0,.265.265H15.61a.265.265,0,0,0,.265-.265V14.036a.265.265,0,0,0-.265-.265h-.794V5.835ZM7.938.582l6.645,3.666H1.293ZM15.345,14.3v1.058H.53V14.3ZM1.588,13.772V5.835H2.647v7.937Zm1.587,0V5.835H12.7v7.937Zm10.053,0V5.835h1.058v7.937ZM.53,5.306V4.777H15.345v.529Z" transform="translate(0 -0.015)"/></g></g></g></svg>