<svg xmlns="http://www.w3.org/2000/svg" width="24.934" height="17.124" viewBox="0 0 24.934 17.124"><defs><style>.a{fill:#303030;}</style></defs><path class="a" d="M256.614,222.153a1.792,1.792,0,0,0,.22-.013A.482.482,0,0,0,257,222.1c.1-.057.106-.162.089-.265a.2.2,0,0,0-.241-.167.6.6,0,0,1-.365-.048.5.5,0,0,1-.175-.635.416.416,0,0,1,.314-.237.734.734,0,0,1,.217,0,.21.21,0,0,0,.189-.057.3.3,0,0,0,.052-.283c-.062-.144-.263-.137-.395-.137a1.124,1.124,0,0,0-.667.2.99.99,0,0,0-.264,1.21A.921.921,0,0,0,256.614,222.153Z" transform="translate(-241.747 -212.193)"/><path class="a" d="M285.467,222.63c.064.176.31.129.456.129a.211.211,0,0,0,.218-.128c.008-.019.014-.038.021-.056l.321-.862.149-.4c.044-.119.089-.261-.057-.337a.535.535,0,0,0-.24-.022.217.217,0,0,0-.232.129c-.041.113-.066.235-.1.35-.063.229-.128.456-.177.689-.067-.329-.175-.652-.269-.974a.272.272,0,0,0-.08-.151.356.356,0,0,0-.238-.044.309.309,0,0,0-.245.059.2.2,0,0,0-.039.217Z" transform="translate(-269.439 -212.834)"/><path class="a" d="M320.385,222.63c.064.176.31.129.456.129a.21.21,0,0,0,.218-.128c.008-.019.014-.038.021-.056l.321-.862.149-.4c.044-.119.089-.261-.057-.337a.536.536,0,0,0-.24-.022.217.217,0,0,0-.232.129c-.041.113-.066.235-.1.35-.063.229-.128.456-.176.689-.067-.329-.175-.652-.269-.974a.272.272,0,0,0-.08-.151.355.355,0,0,0-.238-.044.308.308,0,0,0-.244.059.2.2,0,0,0-.039.217Z" transform="translate(-302.457 -212.834)"/><path class="a" d="M16.543,86.31a5.65,5.65,0,0,1-3.176-.973H2.691a1.2,1.2,0,0,1-1.2-1.2V77.652H11.7a5.722,5.722,0,0,1,2.334-2.123H1.489V74.46a1.2,1.2,0,0,1,1.2-1.2H19.817a1.2,1.2,0,0,1,1.2,1.2v1.068H19.047a5.683,5.683,0,0,1,2.69,7.406l.771.717V74.46a2.694,2.694,0,0,0-2.691-2.691H2.691A2.694,2.694,0,0,0,0,74.46v9.675a2.694,2.694,0,0,0,2.691,2.691H19.775l-1.032-.959A5.669,5.669,0,0,1,16.543,86.31Z" transform="translate(0 -71.77)"/><path class="a" d="M61.386,219.974a.392.392,0,0,0-.392.392v1.167a.392.392,0,0,0,.392.392h7.268a5.7,5.7,0,0,1-.062-1.95Z" transform="translate(-57.675 -211.911)"/><path class="a" d="M224.926,154.339l-4-3.715a5,5,0,1,0-1.408,1.353l4.077,3.79a.975.975,0,1,0,1.327-1.428Zm-8.1-9.874a3.3,3.3,0,1,1-3.3,3.3A3.305,3.305,0,0,1,216.829,144.465Z" transform="translate(-200.304 -138.904)"/></svg>