<svg xmlns="http://www.w3.org/2000/svg" width="14.843" height="14.843" viewBox="0 0 14.843 14.843"><defs><style>.a{fill:#303030;}</style></defs><path class="a" d="M1.855,0A1.855,1.855,0,1,0,3.711,1.855,1.858,1.858,0,0,0,1.855,0Z"/><path class="a" d="M1.855,192a1.855,1.855,0,1,0,1.855,1.855A1.858,1.858,0,0,0,1.855,192Z" transform="translate(0 -186.434)"/><path class="a" d="M1.855,384a1.855,1.855,0,1,0,1.855,1.855A1.858,1.858,0,0,0,1.855,384Z" transform="translate(0 -372.868)"/><path class="a" d="M193.855,0a1.855,1.855,0,1,0,1.855,1.855A1.858,1.858,0,0,0,193.855,0Z" transform="translate(-186.434)"/><path class="a" d="M193.855,192a1.855,1.855,0,1,0,1.855,1.855A1.858,1.858,0,0,0,193.855,192Z" transform="translate(-186.434 -186.434)"/><path class="a" d="M193.855,384a1.855,1.855,0,1,0,1.855,1.855A1.858,1.858,0,0,0,193.855,384Z" transform="translate(-186.434 -372.868)"/><path class="a" d="M385.855,3.711A1.855,1.855,0,1,0,384,1.855,1.858,1.858,0,0,0,385.855,3.711Z" transform="translate(-372.868)"/><path class="a" d="M385.855,192a1.855,1.855,0,1,0,1.855,1.855A1.858,1.858,0,0,0,385.855,192Z" transform="translate(-372.868 -186.434)"/><path class="a" d="M385.855,384a1.855,1.855,0,1,0,1.855,1.855A1.858,1.858,0,0,0,385.855,384Z" transform="translate(-372.868 -372.868)"/></svg>