<svg xmlns="http://www.w3.org/2000/svg" width="13.574" height="13.574" viewBox="0 0 13.574 13.574"><defs><style>.a{fill:#303030;}</style></defs><path class="a" d="M371.393,3.818a.424.424,0,0,1-.424-.424V1.22A.372.372,0,0,0,370.6.848h-2.174a.424.424,0,1,1,0-.848H370.6a1.221,1.221,0,0,1,1.22,1.22V3.393A.424.424,0,0,1,371.393,3.818Z" transform="translate(-358.244 0)"/><path class="a" d="M.424,3.818A.424.424,0,0,1,0,3.393V1.22A1.221,1.221,0,0,1,1.22,0H3.393a.424.424,0,1,1,0,.848H1.22a.372.372,0,0,0-.371.371V3.393A.424.424,0,0,1,.424,3.818Z"/><path class="a" d="M3.393,371.818H1.22A1.221,1.221,0,0,1,0,370.6v-2.174a.424.424,0,1,1,.848,0V370.6a.372.372,0,0,0,.371.371H3.393a.424.424,0,0,1,0,.848Z" transform="translate(0 -358.244)"/><path class="a" d="M370.6,371.818h-2.174a.424.424,0,1,1,0-.848H370.6a.372.372,0,0,0,.371-.371v-2.174a.424.424,0,1,1,.848,0V370.6A1.221,1.221,0,0,1,370.6,371.818Z" transform="translate(-358.244 -358.244)"/><path class="a" d="M67.446,68.666H65.22A1.221,1.221,0,0,1,64,67.446V65.22A1.221,1.221,0,0,1,65.22,64h2.227a1.221,1.221,0,0,1,1.22,1.22v2.227A1.221,1.221,0,0,1,67.446,68.666ZM65.22,64.848a.372.372,0,0,0-.371.371v2.227a.372.372,0,0,0,.371.371h2.227a.372.372,0,0,0,.371-.371V65.22a.372.372,0,0,0-.371-.371Z" transform="translate(-62.303 -62.303)"/><path class="a" d="M67.446,276.666H65.22a1.221,1.221,0,0,1-1.22-1.22V273.22A1.221,1.221,0,0,1,65.22,272h2.227a1.221,1.221,0,0,1,1.22,1.22v2.227A1.221,1.221,0,0,1,67.446,276.666Zm-2.227-3.818a.372.372,0,0,0-.371.371v2.227a.372.372,0,0,0,.371.371h2.227a.372.372,0,0,0,.371-.371V273.22a.372.372,0,0,0-.371-.371Z" transform="translate(-62.303 -264.789)"/><path class="a" d="M275.446,68.666H273.22a1.221,1.221,0,0,1-1.22-1.22V65.22A1.221,1.221,0,0,1,273.22,64h2.227a1.221,1.221,0,0,1,1.22,1.22v2.227A1.221,1.221,0,0,1,275.446,68.666Zm-2.227-3.818a.372.372,0,0,0-.371.371v2.227a.372.372,0,0,0,.371.371h2.227a.372.372,0,0,0,.371-.371V65.22a.372.372,0,0,0-.371-.371Z" transform="translate(-264.789 -62.303)"/><path class="a" d="M275.977,274.121h-1.007v-1.432a.69.69,0,0,0-.689-.689h-1.591a.69.69,0,0,0-.689.689v1.591a.69.69,0,0,0,.689.689h1.432v1.007a.69.69,0,0,0,.689.689h1.167a.69.69,0,0,0,.689-.689V274.81A.69.69,0,0,0,275.977,274.121Zm-3.128-1.273h1.273v1.273h-1.273Zm2.969,2.969h-.848v-.848h.848Z" transform="translate(-264.789 -264.789)"/><path class="a" d="M128.848,129.273h-.424a.424.424,0,0,1-.424-.424v-.424a.424.424,0,0,1,.424-.424h.424a.424.424,0,0,1,.424.424v.424A.424.424,0,0,1,128.848,129.273Z" transform="translate(-124.607 -124.607)"/><path class="a" d="M336.848,129.273h-.424a.424.424,0,0,1-.424-.424v-.424a.424.424,0,0,1,.424-.424h.424a.424.424,0,0,1,.424.424v.424A.424.424,0,0,1,336.848,129.273Z" transform="translate(-327.092 -124.607)"/><path class="a" d="M128.848,337.273h-.424a.424.424,0,0,1-.424-.424v-.424a.424.424,0,0,1,.424-.424h.424a.424.424,0,0,1,.424.424v.424A.424.424,0,0,1,128.848,337.273Z" transform="translate(-124.607 -327.092)"/></svg>