<svg xmlns="http://www.w3.org/2000/svg" width="16.375" height="16.375" viewBox="0 0 16.375 16.375"><defs><style>.a{fill:#303030;}</style></defs><path class="a" d="M11.841,14.444A.341.341,0,0,1,11.5,14.1V13.59a.341.341,0,1,1,.682,0V14.1A.341.341,0,0,1,11.841,14.444Z" transform="translate(-3.653 -4.209)"/><path class="a" d="M11.535,12.094H10.341a.341.341,0,0,1,0-.682h1.194a.512.512,0,1,0,0-1.023h-.341a1.194,1.194,0,1,1,0-2.388h1.194a.341.341,0,1,1,0,.682H11.194a.512.512,0,1,0,0,1.023h.341a1.194,1.194,0,0,1,0,2.388Z" transform="translate(-3.177 -2.542)"/><path class="a" d="M11.841,8.195a.341.341,0,0,1-.341-.341V7.341a.341.341,0,1,1,.682,0v.512A.341.341,0,0,1,11.841,8.195Z" transform="translate(-3.653 -2.224)"/><path class="a" d="M10.094,13.188a4.094,4.094,0,1,1,4.094-4.094A4.1,4.1,0,0,1,10.094,13.188Zm0-7.505a3.412,3.412,0,1,0,3.412,3.412A3.415,3.415,0,0,0,10.094,5.682Z" transform="translate(-1.906 -1.588)"/><path class="a" d="M11.841,18.347a.341.341,0,0,1,0-.682,6.831,6.831,0,0,0,6.823-6.823.341.341,0,1,1,.682,0A7.514,7.514,0,0,1,11.841,18.347Z" transform="translate(-3.653 -3.336)"/><path class="a" d="M16.544,5.493a.343.343,0,0,1-.323-.229A6.816,6.816,0,0,0,9.783.682,6.65,6.65,0,0,0,5.575,2.155a.341.341,0,1,1-.427-.532A7.322,7.322,0,0,1,9.783,0a7.5,7.5,0,0,1,7.084,5.04.342.342,0,0,1-.211.435A.356.356,0,0,1,16.544,5.493Z" transform="translate(-1.595)"/><path class="a" d="M6.117,16.062A.346.346,0,0,1,6,16.043a7.5,7.5,0,0,1-5-7.07A7.379,7.379,0,0,1,2.3,4.768a.341.341,0,1,1,.562.386A6.708,6.708,0,0,0,1.682,8.973,6.813,6.813,0,0,0,6.231,15.4a.341.341,0,0,1-.113.663Z" transform="translate(-0.318 -1.468)"/><path class="a" d="M12.706,22.412a.343.343,0,0,1-.242-.1L11.1,20.948a.341.341,0,0,1,0-.482L12.464,19.1a.341.341,0,0,1,.482.482l-1.123,1.123,1.123,1.123a.341.341,0,0,1,0,.482A.338.338,0,0,1,12.706,22.412Z" transform="translate(-3.494 -6.036)"/><path class="a" d="M2.848,6.762a.341.341,0,0,1-.33-.252L2.077,4.862.429,5.3a.341.341,0,0,1-.176-.659L2.23,4.115a.343.343,0,0,1,.418.241l.529,1.977a.341.341,0,0,1-.241.418.364.364,0,0,1-.089.012Z" transform="translate(0 -1.304)"/><path class="a" d="M21.016,7.455a.337.337,0,0,1-.171-.046L19.073,6.386a.341.341,0,0,1,.341-.591l1.477.853.853-1.477a.341.341,0,0,1,.591.341L21.311,7.284a.342.342,0,0,1-.3.171Z" transform="translate(-6.005 -1.588)"/></svg>